<svg width="36" height="28" viewBox="0 0 36 28" fill="none" xmlns="http://www.w3.org/2000/svg">
<g clip-path="url(#clip0_5_14)">
<path d="M35 0H1C0.447715 0 0 0.447714 0 0.999999V4.27883C0 4.83112 0.447716 5.27883 1 5.27883H35C35.5523 5.27883 36 4.83112 36 4.27883V1C36 0.447715 35.5523 0 35 0Z" fill="white"/>
<path d="M15.1044 7.62753H1C0.447715 7.62753 0 8.07525 0 8.62753V11.9064C0 12.4587 0.447716 12.9064 1 12.9064H15.1044C15.6567 12.9064 16.1044 12.4587 16.1044 11.9064V8.62753C16.1044 8.07525 15.6567 7.62753 15.1044 7.62753Z" fill="white"/>
<path d="M30.1027 14.9389H1C0.447715 14.9389 0 15.3866 0 15.9389V19.2177C0 19.77 0.447714 20.2177 0.999999 20.2177H30.1027C30.655 20.2177 31.1027 19.77 31.1027 19.2177V15.9389C31.1027 15.3866 30.655 14.9389 30.1027 14.9389Z" fill="white"/>
<path d="M21.0055 22.7212H1C0.447715 22.7212 0 23.1689 0 23.7212V27C0 27.5523 0.447714 28 0.999999 28H21.0055C21.5578 28 22.0055 27.5523 22.0055 27V23.7212C22.0055 23.1689 21.5578 22.7212 21.0055 22.7212Z" fill="white"/>
</g>
<defs>
<clipPath id="clip0_5_14">
<rect width="36" height="28" fill="white"/>
</clipPath>
</defs>
</svg>
